:SAMPLES-PER-SECOND 30
:FULLY-SPECIFIED
:DEGREES
223
root  54.4016 38.1628 0.502126 93.6921 84.2321 100.62
RightUpLeg  -17.2644 -5.44087 -6.01565
RightLeg  2.36662 10.8743 -1.23996
RightFoot  -2.06864 -0.701552 8.50955
RightToes  -1.33073e-015 0 -3.6325e-017
Spine  3.98844 -0.64264 -7.31672
Spine1  9.23113 -1.55316 2.41043
HEad  -22.2136 5.11323 -4.71775
LeftShoulder1  -0.133782 3.85365 -32.1431
LeftArm  14.4193 -28.1528 -52.1806
LeftForeArm  18.7089 -30.3895 -5.58989
LeftHand  -0.0252179 5.34239 4.54397
RightShoulder  -0.741086 -5.54515 29.6618
RightArm  18.7429 -1.68142 47.9817
RightForeArm  17.9032 9.00698 8.44777
RightHand  -0.129271 4.97007 -1.73997
LeftUpLeg  10.0113 4.70362 -9.15282
LeftLeg  14.253 -1.11368 -0.332986
LeftFoot  -15.7889 0.415608 8.29628
LeftToes  -1.63346e-009 7.54925e-011 9.86887e-012
224
root  55.8758 37.8999 0.502997 104.887 83.9934 112.371
RightUpLeg  -15.9588 -7.14541 -5.88515
RightLeg  -2.91618 9.23159 -1.14333
RightFoot  -3.9836 -0.660903 9.74097
RightToes  -1.33073e-015 0 -3.6325e-017
Spine  4.02644 -0.82415 -7.20206
Spine1  9.50854 -1.90979 3.07694
HEad  -22.6702 4.53167 -4.51428
LeftShoulder1  -0.136686 3.86537 -31.7296
LeftArm  13.6348 -28.0141 -52.5913
LeftForeArm  20.6155 -33.6075 -6.27436
LeftHand  -0.0566764 4.50392 4.53251
RightShoulder  -0.838493 -5.75397 30.5181
RightArm  16.3497 -3.64735 47.2162
RightForeArm  22.065 5.03204 8.45707
RightHand  -0.0364458 3.76224 -0.73018
LeftUpLeg  13.2127 4.82182 -8.75227
LeftLeg  14.2787 -2.3902 -0.301305
LeftFoot  -18.1335 0.581727 7.90737
LeftToes  -1.63346e-009 7.54925e-011 9.86887e-012
225
root  57.3509 37.5297 0.516856 105.288 84.0758 112.662
RightUpLeg  -17.2749 -6.74608 -5.33753
RightLeg  0.760928 4.77778 -0.365069
RightFoot  -3.99098 -0.563069 8.3821
RightToes  -1.33073e-015 0 -3.6325e-017
Spine  4.12661 -0.689399 -5.69284
Spine1  8.86825 -1.3823 1.8253
HEad  -22.6884 4.21303 -3.83441
LeftShoulder1  -0.18197 3.99416 -30.9732
LeftArm  14.3279 -27.2506 -52.7102
LeftForeArm  21.0146 -36.0389 -6.90837
LeftHand  -0.0826817 3.96607 5.26488
RightShoulder  -1.0813 -6.25785 32.7223
RightArm  16.7117 -5.32431 45.0908
RightForeArm  24.3419 2.83125 8.51403
RightHand  0.00590381 2.78973 -0.130599
LeftUpLeg  15.1131 4.70205 -8.54745
LeftLeg  15.4909 -2.16875 -0.122189
LeftFoot  -20.5823 0.774859 8.06258
LeftToes  -1.63346e-009 7.54925e-011 9.86887e-012
226
root  58.8541 37.2863 0.524696 110.997 84.9171 118.029
RightUpLeg  -18.6186 -6.15899 -3.92177
RightLeg  6.20183 2.06736 0.107538
RightFoot  1.49484 -0.437907 4.3622
RightToes  -1.33073e-015 0 -3.6325e-017
Spine  3.47343 -0.76146 -3.84651
Spine1  9.29486 -1.51248 2.22236
HEad  -24.0678 4.19181 -4.16124
LeftShoulder1  -0.226645 4.11022 -31.2153
LeftArm  13.2564 -24.5246 -51.9771
LeftForeArm  23.6215 -39.2774 -7.66073
LeftHand  -0.0581009 4.30291 4.09314
RightShoulder  -1.08345 -6.25799 32.7413
RightArm  16.324 -7.68418 43.9332
RightForeArm  27.3367 2.73604 8.19795
RightHand  0.0664816 2.61013 0.75614
LeftUpLeg  16.6899 4.19972 -7.30568
LeftLeg  16.8055 -2.25647 -0.257438
LeftFoot  -22.4315 0.783143 6.67176
LeftToes  -1.63346e-009 7.54925e-011 9.86887e-012
227
root  60.4157 37.1891 0.514321 127.741 85.9211 134.997
RightUpLeg  -19.2395 -6.76683 -2.37518
RightLeg  10.8513 3.42063 1.06693
RightFoot  8.53311 -0.00504243 0.207182
RightToes  -1.33073e-015 0 -3.6325e-017
Spine  3.69264 -1.12268 -1.4679
Spine1  8.95861 -1.99208 2.89922
HEad  -25.3652 4.66201 -4.36236
LeftShoulder1  -0.311132 4.32293 -31.8615
LeftArm  14.0546 -21.1403 -50.7661
LeftForeArm  23.8481 -40.4794 -8.01369
LeftHand  -0.0826778 3.80817 4.89124
RightShoulder  -1.26739 -6.67804 33.3694
RightArm  16.9541 -10.002 41.5219
RightForeArm  27.7871 4.21823 8.13199
RightHand  0.0925869 2.63509 1.13191
LeftUpLeg  18.7956 2.44927 -5.84684
LeftLeg  18.2895 -1.84449 -0.282289
LeftFoot  -22.7956 0.527464 3.89651
LeftToes  -1.63346e-009 7.54925e-011 9.86887e-012
228
root  62.0338 37.02 0.478712 151.843 87.0104 159.063
RightUpLeg  -20.2394 -6.62445 -0.440621
RightLeg  17.178 4.0608 1.26616
RightFoot  8.33937 0.0885922 -0.202066
RightToes  -1.33073e-015 0 -3.6325e-017
Spine  3.78421 -1.62959 2.21469
Spine1  7.7154 -2.02244 1.59707
HEad  -24.952 5.73409 -4.48871
LeftShoulder1  -0.349285 4.41816 -32.0706
LeftArm  14.5717 -16.2114 -49.6794
LeftForeArm  24.1362 -40.0963 -7.88026
LeftHand  -0.0724576 4.19788 5.28527
RightShoulder  -1.3392 -6.81159 33.9289
RightArm  18.1644 -11.5381 39.2052
RightForeArm  25.9195 5.41282 8.33906
RightHand  0.103015 2.75258 1.25602
LeftUpLeg  19.2188 1.90203 -3.68777
LeftLeg  22.7637 -2.43454 -0.8265
LeftFoot  -22.2113 0.219586 0.944031
LeftToes  -1.63346e-009 7.54925e-011 9.86887e-012
229
root  63.5125 36.9478 0.511993 -161.927 87.4758 -156.058
RightUpLeg  -21.8584 -6.25637 2.04623
RightLeg  21.8495 3.68486 1.39138
RightFoot  6.34332 0.451833 -2.62591
RightToes  -1.33073e-015 0 -3.6325e-017
Spine  2.4666 -1.86958 5.11848
Spine1  7.14053 -2.13406 1.9888
HEad  -24.7333 5.499 -4.37721
LeftShoulder1  -0.361965 4.44921 -32.15
LeftArm  16.4587 -11.421 -49.2339
LeftForeArm  22.6204 -36.7274 -6.99897
LeftHand  -0.0636939 4.32015 4.90223
RightShoulder  -1.29361 -6.7104 33.7784
RightArm  18.4585 -12.0277 37.8696
RightForeArm  23.7909 5.81456 8.3299
RightHand  0.0785483 2.70048 0.91775
LeftUpLeg  15.8742 2.61564 -0.232138
LeftLeg  30.7432 -4.84861 -2.7945
LeftFoot  -19.1485 -0.128531 -3.96859
LeftToes  -1.63346e-009 7.54925e-011 9.86887e-012
